<svg xmlns="http://www.w3.org/2000/svg" viewBox="0 0 100 110">
  <defs>
    <linearGradient id="silv" x1="0" y1="0" x2="1" y2="1">
      <stop offset="0" stop-color="#e2e6ea"/><stop offset=".55" stop-color="#c3c9cf"/><stop offset="1" stop-color="#9aa2ab"/>
    </linearGradient>
    <linearGradient id="dark" x1="0" y1="0" x2="0" y2="1">
      <stop offset="0" stop-color="#565d66"/><stop offset="1" stop-color="#3f454d"/>
    </linearGradient>
    <linearGradient id="blu" x1="0" y1="0" x2="0" y2="1">
      <stop offset="0" stop-color="#2fbdec"/><stop offset=".5" stop-color="#149fd4"/><stop offset="1" stop-color="#0c74ad"/>
    </linearGradient>
  </defs>
  <!-- hexagon badge -->
  <polygon points="50,2 93,28 93,82 50,108 7,82 7,28" fill="url(#dark)"/>
  <polygon points="50,2 93,28 93,82 50,108" fill="url(#silv)"/>
  <!-- blue circle -->
  <circle cx="47" cy="55" r="35" fill="url(#blu)"/>
  <circle cx="47" cy="55" r="35" fill="none" stroke="#0a6ea6" stroke-width="1.4" opacity=".55"/>
  <!-- white auger spiral (4 flights + tip) -->
  <g fill="#fff">
    <path d="M23 36 Q47 26 71 36 L71 42 Q47 52 23 42 Z"/>
    <path d="M28 50 Q47 41 66 50 L66 56 Q47 65 28 56 Z"/>
    <path d="M33 63 Q47 55 61 63 L61 68.5 Q47 76.5 33 68.5 Z"/>
    <path d="M38.5 75 Q47 69 55.5 75 L55.5 79.5 Q47 85.5 38.5 79.5 Z"/>
    <path d="M43.5 85 L50.5 85 L47 93 Z"/>
  </g>
</svg>
